<?xml version="1.0" standalone="no"?>
<!DOCTYPE svg PUBLIC "-//W3C//DTD SVG 20010904//EN"
 "http://www.w3.org/TR/2001/REC-SVG-20010904/DTD/svg10.dtd">
<svg version="1.0" xmlns="http://www.w3.org/2000/svg"
 width="500.000000pt" height="500.000000pt" viewBox="0 0 500.000000 500.000000"
 preserveAspectRatio="xMidYMid meet">

<g transform="translate(0.000000,500.000000) scale(0.100000,-0.100000)"
fill="#000000" stroke="none">
<path d="M2254 4480 c-237 -25 -518 -117 -747 -245 -454 -254 -798 -686 -940
-1181 -94 -325 -98 -736 -11 -1072 34 -130 116 -332 186 -459 179 -323 506
-640 825 -802 319 -160 583 -224 933 -224 304 -1 528 43 784 152 191 82 265
126 442 259 584 439 870 1175 753 1942 -33 216 -140 500 -262 695 -201 323
-506 594 -849 754 -207 97 -427 159 -637 181 -115 11 -368 11 -477 0z m600
-129 c166 -34 340 -88 448 -139 409 -192 729 -510 927 -922 161 -335 213 -804
131 -1183 -41 -186 -137 -445 -203 -541 l-25 -37 -31 75 c-17 41 -31 77 -31
80 0 4 -34 86 -76 182 -95 219 -120 293 -144 419 -29 150 -38 216 -50 370 -23
287 -60 442 -155 639 -124 257 -334 463 -592 580 -316 144 -643 164 -958 59
-188 -62 -366 -168 -495 -294 -84 -81 -190 -230 -242 -337 -95 -201 -128 -333
-153 -619 -17 -207 -19 -218 -50 -384 -27 -142 -59 -237 -149 -448 -34 -80
-78 -185 -97 -234 l-34 -87 -18 22 c-64 81 -186 397 -221 573 -112 562 38
1152 401 1583 130 155 282 285 457 392 209 128 400 202 646 249 155 30 147 29
390 26 179 -3 245 -7 324 -24z m-839 -1169 c160 -75 254 -246 255 -463 0 -82
-2 -88 -32 -129 -174 -229 -153 -311 111 -430 143 -64 183 -60 386 42 96 48
145 104 145 167 0 37 -57 148 -107 210 -35 41 -38 51 -41 117 -11 216 89 409
253 489 107 52 257 45 379 -17 98 -50 199 -179 243 -311 25 -77 27 -93 27
-257 1 -160 -2 -183 -26 -272 -33 -119 -81 -214 -146 -292 l-50 -60 66 -95
c98 -144 145 -257 181 -440 33 -162 24 -419 -16 -463 -25 -28 -231 -154 -318
-194 -102 -47 -346 -127 -450 -148 -327 -65 -632 -45 -959 61 -169 55 -283
108 -441 205 -142 87 -144 90 -152 269 -13 262 68 532 225 749 l40 54 -59 76
c-121 157 -178 361 -166 600 9 180 58 313 157 423 95 105 197 149 335 144 77
-2 100 -7 160 -35z m587 -607 c49 -32 112 -99 150 -158 l31 -48 -24 -24 c-32
-32 -205 -116 -250 -122 -28 -4 -56 4 -124 36 -106 50 -155 85 -155 112 0 41
115 174 180 209 67 36 132 34 192 -5z"/>
<path d="M1820 2808 c-43 -29 -72 -86 -78 -153 -3 -40 2 -61 25 -105 35 -68
76 -93 146 -87 144 12 198 231 83 336 -39 37 -128 41 -176 9z"/>
<path d="M3024 2811 c-72 -44 -100 -177 -54 -261 36 -64 83 -93 143 -87 60 5
95 30 125 87 44 88 18 218 -52 261 -19 12 -49 19 -81 19 -32 0 -62 -7 -81 -19z"/>
</g>
</svg>
